# This file uses centimeters as units for non-parametric coordinates.

mtllib Timer.mtl
g default
v 0.378030 -0.548738 -3.581454
v 0.378030 -0.548738 3.581454
v 0.378030 0.548738 -3.581454
v 0.378030 0.548738 3.581454
v -0.498286 -0.623682 3.701555
v -0.493822 -0.628146 3.701555
v -0.487804 -0.629860 3.701555
v -0.487804 -0.628146 3.707573
v -0.487804 -0.623682 3.712037
v -0.487804 -0.617664 3.713750
v -0.493822 -0.617664 3.712037
v -0.498286 -0.617664 3.707573
v -0.500000 -0.617664 3.701555
v 0.498286 -0.617664 3.707573
v 0.493822 -0.617664 3.712037
v 0.487804 -0.617664 3.713750
v 0.487804 -0.623682 3.712037
v 0.487804 -0.628146 3.707573
v 0.487804 -0.629860 3.701555
v 0.493822 -0.628146 3.701555
v 0.498286 -0.623682 3.701555
v 0.500000 -0.617664 3.701555
v -0.493822 0.628146 3.701555
v -0.498286 0.623682 3.701555
v -0.500000 0.617664 3.701555
v -0.498286 0.617664 3.707573
v -0.493822 0.617664 3.712037
v -0.487804 0.617664 3.713750
v -0.487804 0.623682 3.712037
v -0.487804 0.628146 3.707573
v -0.487804 0.629860 3.701555
v 0.498286 0.623682 3.701555
v 0.493822 0.628146 3.701555
v 0.487804 0.629860 3.701555
v 0.487804 0.628146 3.707573
v 0.487804 0.623682 3.712037
v 0.487804 0.617664 3.713750
v 0.493822 0.617664 3.712037
v 0.498286 0.617664 3.707573
v 0.500000 0.617664 3.701555
v -0.493822 0.617664 -3.712037
v -0.498286 0.617664 -3.707573
v -0.500000 0.617664 -3.701555
v -0.498286 0.623682 -3.701555
v -0.493822 0.628146 -3.701555
v -0.487804 0.629860 -3.701555
v -0.487804 0.628146 -3.707573
v -0.487804 0.623682 -3.712037
v -0.487804 0.617664 -3.713750
v 0.498286 0.617664 -3.707573
v 0.493822 0.617664 -3.712037
v 0.487804 0.617664 -3.713750
v 0.487804 0.623682 -3.712037
v 0.487804 0.628146 -3.707573
v 0.487804 0.629860 -3.701555
v 0.493822 0.628146 -3.701555
v 0.498286 0.623682 -3.701555
v 0.500000 0.617664 -3.701555
v -0.493822 -0.628146 -3.701555
v -0.498286 -0.623682 -3.701555
v -0.500000 -0.617664 -3.701555
v -0.498286 -0.617664 -3.707573
v -0.493822 -0.617664 -3.712037
v -0.487804 -0.617664 -3.713750
v -0.487804 -0.623682 -3.712037
v -0.487804 -0.628146 -3.707573
v -0.487804 -0.629860 -3.701555
v 0.498286 -0.623682 -3.701555
v 0.493822 -0.628146 -3.701555
v 0.487804 -0.629860 -3.701555
v 0.487804 -0.628146 -3.707573
v 0.487804 -0.623682 -3.712037
v 0.487804 -0.617664 -3.713750
v 0.493822 -0.617664 -3.712037
v 0.498286 -0.617664 -3.707573
v 0.500000 -0.617664 -3.701555
v 0.500000 -0.560934 -3.593650
v 0.498286 -0.554916 -3.587632
v 0.493822 -0.550452 -3.583168
v 0.487804 -0.548738 -3.581454
v 0.500000 -0.560934 3.593650
v 0.498286 -0.554916 3.587632
v 0.493822 -0.550452 3.583168
v 0.487804 -0.548738 3.581454
v 0.500000 0.560934 -3.593650
v 0.498286 0.554916 -3.587632
v 0.493822 0.550452 -3.583168
v 0.487804 0.548738 -3.581454
v 0.500000 0.560934 3.593650
v 0.498286 0.554916 3.587632
v 0.493822 0.550452 3.583168
v 0.487804 0.548738 3.581454
v -0.497316 -0.622845 3.706736
v -0.492985 -0.627176 3.706736
v -0.492985 -0.622845 3.711066
v 0.497316 -0.622845 3.706736
v 0.492985 -0.622845 3.711066
v 0.492985 -0.627176 3.706736
v -0.492985 0.627176 3.706736
v -0.497316 0.622845 3.706736
v -0.492985 0.622845 3.711066
v 0.497316 0.622845 3.706736
v 0.492985 0.627176 3.706736
v 0.492985 0.622845 3.711066
v -0.492985 0.622845 -3.711066
v -0.497316 0.622845 -3.706736
v -0.492985 0.627176 -3.706736
v 0.497316 0.622845 -3.706736
v 0.492985 0.622845 -3.711066
v 0.492985 0.627176 -3.706736
v -0.492985 -0.627176 -3.706736
v -0.497316 -0.622845 -3.706736
v -0.492985 -0.622845 -3.711066
v 0.497316 -0.622845 -3.706736
v 0.492985 -0.627176 -3.706736
v 0.492985 -0.622845 -3.711066
vt 0.993406 0.439311
vt 0.123906 0.979928
vt 0.993049 0.328264
vt 0.123882 0.835566
vt 0.011285 0.832115
vt 0.993385 0.976025
vt 0.994117 0.752784
vt 0.005883 0.327507
vt 0.151413 0.328131
vt 0.148758 0.438906
vt 0.149294 0.328143
vt 0.008088 0.977892
vt 0.124052 0.833372
vt 0.005883 0.622705
vt 0.009049 0.439493
vt 0.008017 0.327613
vt 0.150900 0.438919
vt 0.126156 0.980000
vt 0.126033 0.835466
vt 0.992717 0.831356
vt 0.993205 0.006645
vt 0.020880 0.014243
vt 0.993280 0.195881
vt 0.978181 0.014259
vt 0.005972 0.195925
vt 0.978327 0.188281
vt 0.005883 0.006646
vt 0.021011 0.188309
vt 0.975887 0.016618
vt 0.031033 0.028455
vt 0.976118 0.185908
vt 0.968782 0.028992
vt 0.023259 0.185938
vt 0.968217 0.174049
vt 0.023108 0.016609
vt 0.030365 0.173563
vt 0.993417 0.440740
vt 0.126123 0.980732
vt 0.993401 0.440022
vt 0.123970 0.981399
vt 0.994117 0.439331
vt 0.123918 0.980661
vt 0.124654 0.979940
vt 0.125408 0.979971
vt 0.006616 0.977851
vt 0.007356 0.977857
vt 0.008046 0.978623
vt 0.993760 0.328244
vt 0.007968 0.979357
vt 0.993044 0.327552
vt 0.006031 0.978620
vt 0.993058 0.326834
vt 0.124899 0.833730
vt 0.125982 0.834735
vt 0.005903 0.754613
vt 0.125318 0.835504
vt 0.124597 0.835553
vt 0.123908 0.834835
vt 0.123965 0.834099
vt 0.009562 0.830951
vt 0.010269 0.830317
vt 0.011239 0.830647
vt 0.011284 0.831383
vt 0.010557 0.832060
vt 0.009826 0.831961
vt 0.009037 0.440204
vt 0.993450 0.831340
vt 0.008986 0.440920
vt 0.007671 0.441057
vt 0.992719 0.830623
vt 0.007217 0.440393
vt 0.007622 0.439530
vt 0.008339 0.439495
vt 0.007947 0.326184
vt 0.994117 0.195886
vt 0.008004 0.326901
vt 0.007307 0.327609
vt 0.006591 0.327574
vt 0.006187 0.326710
vt 0.993288 0.196718
vt 0.994097 0.620876
vt 0.150854 0.439630
vt 0.993397 0.976758
vt 0.150761 0.440342
vt 0.148929 0.440326
vt 0.994117 0.976031
vt 0.148817 0.439616
vt 0.149470 0.438891
vt 0.150188 0.438895
vt 0.151272 0.326709
vt 0.993220 0.005808
vt 0.151369 0.327421
vt 0.150709 0.328154
vt 0.149998 0.328159
vt 0.149353 0.327433
vt 0.994042 0.006629
vt 0.149460 0.326724
vt 0.977294 0.015093
vt 0.976498 0.015900
vt 0.021734 0.015078
vt 0.022505 0.015888
vt 0.977475 0.187446
vt 0.976705 0.186635
vt 0.021881 0.187473
vt 0.022661 0.186662
vt 0.125366 0.980623
vt 0.994033 0.440681
vt 0.124718 0.981223
vt 0.994006 0.439969
vt 0.124572 0.980546
vt 0.006670 0.978502
vt 0.993680 0.326891
vt 0.007416 0.978469
vt 0.993647 0.327607
vt 0.007243 0.979158
vt 0.124608 0.834257
vt 0.125239 0.834810
vt 0.124517 0.834943
vt 0.010023 0.831334
vt 0.010596 0.830797
vt 0.010695 0.831475
vt 0.008426 0.440075
vt 0.008228 0.440732
vt 0.993351 0.830710
vt 0.007745 0.440139
vt 0.007194 0.326385
vt 0.994006 0.196616
vt 0.007395 0.327025
vt 0.006712 0.326973
vt 0.150201 0.439475
vt 0.149837 0.440114
vt 0.994027 0.976662
vt 0.149469 0.439479
vt 0.150366 0.326936
vt 0.993932 0.005906
vt 0.150720 0.327566
vt 0.149995 0.327580
vt 0.006913 0.439595
vt 0.994097 0.622554
vt 0.006641 0.326072
vt 0.994097 0.621719
vt 0.994117 0.753620
vt 0.994117 0.754462
vt 0.005883 0.621027
vt 0.005967 0.196762
vt 0.005883 0.621870
vt 0.011154 0.829919
vt 0.005903 0.752935
vt 0.005903 0.753771
vt 0.125565 0.834244
vt 0.009107 0.831820
vt 0.005883 0.977849
vt 0.005889 0.005809
vn 1.000000 0.000000 0.000000
vn 1.000000 0.000000 0.000000
vn 1.000000 0.000000 0.000000
vn 1.000000 0.000000 0.000000
vn -0.001745 -0.999999 0.000231
vn -0.507724 -0.861520 0.000171
vn -0.507724 -0.861520 -0.000171
vn -0.001745 -0.999999 -0.000231
vn -0.861519 -0.507726 0.000171
vn -0.861519 -0.507726 -0.000171
vn -0.999999 -0.001380 0.000231
vn -0.999999 -0.001380 -0.000231
vn -0.001743 -0.001378 0.999998
vn -0.001292 -0.507709 0.861528
vn 0.001292 -0.507709 0.861528
vn 0.001743 -0.001378 0.999998
vn -0.001292 -0.861535 0.507697
vn 0.001292 -0.861535 0.507696
vn 0.001745 -0.999999 0.000231
vn -0.861538 -0.001021 0.507692
vn -0.861538 0.001021 0.507692
vn -0.999999 0.001380 0.000231
vn -0.507708 -0.001021 0.861529
vn -0.507708 0.001021 0.861529
vn -0.001743 0.001378 0.999998
vn 0.507708 -0.001021 0.861529
vn 0.507708 0.001021 0.861529
vn 0.001743 0.001378 0.999998
vn 0.861538 -0.001021 0.507692
vn 0.861538 0.001021 0.507692
vn 0.998845 -0.047393 0.007932
vn 0.998845 0.047393 0.007932
vn 0.861519 -0.507726 0.000171
vn 0.861519 -0.507726 -0.000171
vn 0.998845 -0.047393 -0.007932
vn 0.507724 -0.861520 0.000171
vn 0.507724 -0.861520 -0.000171
vn 0.001745 -0.999999 -0.000231
vn -0.861519 0.507726 0.000171
vn -0.861519 0.507726 -0.000171
vn -0.999999 0.001380 -0.000231
vn -0.507724 0.861520 0.000171
vn -0.507724 0.861520 -0.000171
vn -0.001745 0.999999 0.000231
vn -0.001745 0.999999 -0.000231
vn -0.001292 0.861535 0.507696
vn 0.001292 0.861535 0.507697
vn 0.001745 0.999999 0.000231
vn -0.001292 0.507709 0.861528
vn 0.001292 0.507709 0.861528
vn 0.507724 0.861520 0.000171
vn 0.507724 0.861520 -0.000171
vn 0.001745 0.999999 -0.000231
vn 0.861519 0.507726 0.000171
vn 0.861519 0.507726 -0.000171
vn 0.998845 0.047393 -0.007932
vn -0.861538 0.001021 -0.507692
vn -0.861538 -0.001021 -0.507692
vn -0.507708 0.001021 -0.861529
vn -0.507708 -0.001021 -0.861529
vn -0.001743 0.001378 -0.999998
vn -0.001743 -0.001378 -0.999998
vn -0.001292 0.507709 -0.861528
vn 0.001292 0.507709 -0.861528
vn 0.001743 0.001378 -0.999998
vn -0.001292 0.861535 -0.507697
vn 0.001292 0.861535 -0.507696
vn 0.507708 0.001021 -0.861529
vn 0.507708 -0.001021 -0.861529
vn 0.001743 -0.001378 -0.999998
vn 0.861538 0.001021 -0.507692
vn 0.861538 -0.001021 -0.507692
vn -0.001292 -0.861535 -0.507696
vn 0.001292 -0.861535 -0.507697
vn -0.001292 -0.507709 -0.861528
vn 0.001292 -0.507709 -0.861528
vn 0.999974 0.007068 0.001098
vn 0.999974 0.007068 -0.001098
vn 0.999974 -0.007068 0.001098
vn 0.999974 -0.007068 -0.001098
vn 0.017166 0.999853 0.000000
vn 0.017166 0.999853 0.000000
vn 0.000000 1.000000 0.000000
vn 0.000000 1.000000 0.000000
vn 0.017187 0.000000 0.999852
vn 0.017187 0.000000 0.999852
vn 0.000000 0.000000 1.000000
vn 0.000000 0.000000 1.000000
vn 0.017166 -0.999853 0.000000
vn 0.017166 -0.999853 0.000000
vn 0.000000 -1.000000 0.000000
vn 0.000000 -1.000000 0.000000
vn 0.017187 0.000000 -0.999852
vn 0.017187 0.000000 -0.999852
vn 0.000000 0.000000 -1.000000
vn 0.000000 0.000000 -1.000000
vn 0.563110 0.826382 0.000000
vn 0.563110 0.826382 0.000000
vn 0.930048 0.363115 0.056192
vn 0.930048 0.363116 -0.056191
vn 0.563610 0.000000 -0.826041
vn 0.563610 0.000000 -0.826041
vn 0.930048 -0.363116 -0.056191
vn 0.563610 0.000000 0.826041
vn 0.563610 0.000000 0.826041
vn 0.930048 -0.363115 0.056192
vn 0.563110 -0.826382 0.000000
vn 0.563110 -0.826382 0.000000
vn -0.802232 -0.422155 0.422149
vn -0.422136 -0.802236 0.422160
vn -0.422145 -0.422167 0.802227
vn 0.802232 -0.422155 0.422149
vn 0.422135 -0.422168 0.802232
vn 0.422136 -0.802238 0.422157
vn -0.422136 0.802238 0.422157
vn -0.802232 0.422155 0.422149
vn -0.422135 0.422168 0.802232
vn 0.802232 0.422155 0.422149
vn 0.422136 0.802236 0.422160
vn 0.422145 0.422167 0.802227
vn -0.422145 0.422167 -0.802227
vn -0.802232 0.422155 -0.422149
vn -0.422136 0.802236 -0.422160
vn 0.802232 0.422155 -0.422149
vn 0.422135 0.422168 -0.802232
vn 0.422136 0.802238 -0.422157
vn -0.422136 -0.802238 -0.422157
vn -0.802232 -0.422155 -0.422149
vn -0.422135 -0.422168 -0.802232
vn 0.802232 -0.422155 -0.422149
vn 0.422136 -0.802236 -0.422160
vn 0.422145 -0.422167 -0.802227
s off
g Timer
usemtl initialShadingGroup
f 2/30/1 1/32/2 3/34/3 4/36/4
s 1
f 7/1/5 6/39/6 59/82/7 67/17/8
f 6/39/6 5/37/9 60/84/10 59/82/7
f 5/38/9 13/18/11 61/6/12 60/83/10
f 10/2/13 9/42/14 17/47/15 16/12/16
f 9/42/14 8/40/17 18/49/18 17/47/15
f 8/41/17 7/1/5 19/3/19 18/48/18
f 13/18/11 12/44/20 26/56/21 25/19/22
f 12/44/20 11/43/23 27/57/24 26/56/21
f 11/43/23 10/2/13 28/4/25 27/57/24
f 16/12/16 15/46/26 38/64/27 37/5/28
f 15/46/26 14/45/29 39/65/30 38/64/27
f 14/45/29 22/152/31 40/151/32 39/65/30
f 22/27/31 21/153/33 68/91/34 76/21/35
f 21/52/33 20/50/36 69/92/37 68/90/34
f 20/50/36 19/3/19 70/9/38 69/92/37
f 25/19/22 24/54/39 44/70/40 43/20/41
f 24/55/39 23/149/42 45/142/43 44/143/40
f 23/149/42 31/148/44 46/7/45 45/142/43
f 31/13/44 30/59/46 35/62/47 34/147/48
f 30/59/46 29/58/49 36/63/50 35/62/47
f 29/58/49 28/4/25 37/5/28 36/63/50
f 34/14/48 33/146/51 56/141/52 55/139/53
f 33/146/51 32/144/54 57/81/55 56/141/52
f 32/145/54 40/25/32 58/23/56 57/80/55
f 43/20/41 42/67/57 62/86/58 61/6/12
f 42/68/57 41/66/59 63/87/60 62/85/58
f 41/66/59 49/15/61 64/10/62 63/87/60
f 49/15/61 48/73/63 53/77/64 52/16/65
f 48/73/63 47/72/66 54/78/67 53/77/64
f 47/72/66 46/138/45 55/8/53 54/78/67
f 52/16/65 51/76/68 74/95/69 73/11/70
f 51/76/68 50/74/71 75/97/72 74/95/69
f 50/75/71 58/23/56 76/21/35 75/96/72
f 67/17/8 66/89/73 71/93/74 70/9/38
f 66/89/73 65/88/75 72/94/76 71/93/74
f 65/88/75 64/10/62 73/11/70 72/94/76
f 10/2/13 16/12/16 37/5/28 28/4/25
f 31/148/44 34/14/48 55/139/53 46/7/45
f 49/15/61 52/16/65 73/11/70 64/10/62
f 67/17/8 70/9/38 19/3/19 7/1/5
f 61/6/12 13/18/11 25/19/22 43/20/41
f 22/27/31 76/21/35 77/24/77 81/22/78
f 76/21/35 58/23/56 85/26/79 77/24/77
f 58/23/56 40/25/32 89/28/80 85/26/79
f 40/25/32 22/27/31 81/22/78 89/28/80
f 84/35/81 80/29/82 1/32/83 2/30/84
f 80/29/85 88/31/86 3/34/87 1/32/88
f 88/31/89 92/33/90 4/36/91 3/34/92
f 92/33/93 84/35/94 2/30/95 4/36/96
f 79/99/97 80/29/82 84/35/81 83/101/98
f 77/24/77 78/98/99 82/100/100 81/22/78
f 78/98/99 79/99/97 83/101/98 82/100/100
f 83/101/101 84/35/94 92/33/93 91/105/102
f 81/22/78 82/100/100 90/104/103 89/28/80
f 82/100/100 83/101/101 91/105/102 90/104/103
f 80/29/85 79/99/104 87/103/105 88/31/86
f 79/99/104 78/98/99 86/102/106 87/103/105
f 78/98/99 77/24/77 85/26/79 86/102/106
f 88/31/89 87/103/107 91/105/108 92/33/90
f 87/103/107 86/102/106 90/104/103 91/105/108
f 86/102/106 85/26/79 89/28/80 90/104/103
f 12/44/20 13/18/11 5/38/9 93/106/109
f 93/107/109 5/37/9 6/39/6 94/109/110
f 6/39/6 7/1/5 8/41/17 94/109/110
f 94/108/110 8/40/17 9/42/14 95/110/111
f 9/42/14 10/2/13 11/43/23 95/110/111
f 95/110/111 11/43/23 12/44/20 93/106/109
f 93/106/109 94/108/110 95/110/111
f 21/51/33 22/152/31 14/45/29 96/111/112
f 96/111/112 14/45/29 15/46/26 97/113/113
f 15/46/26 16/12/16 17/47/15 97/113/113
f 97/113/113 17/47/15 18/49/18 98/115/114
f 18/48/18 19/3/19 20/50/36 98/114/114
f 98/114/114 20/50/36 21/52/33 96/112/112
f 96/111/112 97/113/113 98/115/114
f 30/59/46 31/13/44 23/53/42 99/116/115
f 99/116/115 23/53/42 24/150/39 100/117/116
f 24/54/39 25/19/22 26/56/21 100/117/116
f 100/117/116 26/56/21 27/57/24 101/118/117
f 27/57/24 28/4/25 29/58/49 101/118/117
f 101/118/117 29/58/49 30/59/46 99/116/115
f 99/116/115 100/117/116 101/118/117
f 39/65/30 40/151/32 32/60/54 102/119/118
f 102/119/118 32/60/54 33/61/51 103/120/119
f 33/61/51 34/147/48 35/62/47 103/120/119
f 103/120/119 35/62/47 36/63/50 104/121/120
f 36/63/50 37/5/28 38/64/27 104/121/120
f 104/121/120 38/64/27 39/65/30 102/119/118
f 102/119/118 103/120/119 104/121/120
f 48/73/63 49/15/61 41/66/59 105/122/121
f 105/122/121 41/66/59 42/68/57 106/123/122
f 42/67/57 43/20/41 44/70/40 106/124/122
f 106/123/122 44/69/40 45/71/43 107/125/123
f 45/71/43 46/138/45 47/72/66 107/125/123
f 107/125/123 47/72/66 48/73/63 105/122/121
f 105/122/121 106/123/122 107/125/123
f 57/80/55 58/23/56 50/75/71 108/127/124
f 108/126/124 50/74/71 51/76/68 109/128/125
f 51/76/68 52/16/65 53/77/64 109/128/125
f 109/128/125 53/77/64 54/78/67 110/129/126
f 54/78/67 55/8/53 56/79/52 110/129/126
f 110/129/126 56/79/52 57/140/55 108/126/124
f 108/126/124 109/128/125 110/129/126
f 66/89/73 67/17/8 59/82/7 111/130/127
f 111/130/127 59/82/7 60/84/10 112/131/128
f 60/83/10 61/6/12 62/86/58 112/132/128
f 112/131/128 62/85/58 63/87/60 113/133/129
f 63/87/60 64/10/62 65/88/75 113/133/129
f 113/133/129 65/88/75 66/89/73 111/130/127
f 111/130/127 112/131/128 113/133/129
f 75/96/72 76/21/35 68/91/34 114/135/130
f 114/134/130 68/90/34 69/92/37 115/136/131
f 69/92/37 70/9/38 71/93/74 115/136/131
f 115/136/131 71/93/74 72/94/76 116/137/132
f 72/94/76 73/11/70 74/95/69 116/137/132
f 116/137/132 74/95/69 75/97/72 114/134/130
f 114/134/130 115/136/131 116/137/132
